# xmcd CD database file
#
# Track frame offsets:
#	150
#	18669
#	36775
#	50832
#	66134
#	84642
#	101139
#	119888
#	139469
#	156670
#	173539
#
# Disc length: 2536 seconds
#
# Revision: 2
# Processed by: cddbd v1.5.2PL0 Copyright (c) Steve Scherf et al.
# Submitted via: CDex 1.75
#
DISCID=a709e60b
DTITLE=Charlie Major - Best 20 Of The Last 20 - Disc 1
DYEAR=1900
DGENRE=Country
TTITLE0=I'm Gonna Drive You Out Of My Mind
TTITLE1=It Can't Happen To Me
TTITLE2=The Other Side
TTITLE3=For The Money
TTITLE4=Tell Me Something I Don't Know
TTITLE5=Feeling Kind Of Lucky Tonight
TTITLE6=Some Days Are Better
TTITLE7=Right Here, Right Now
TTITLE8=One True Love
TTITLE9=Side By Side
TTITLE10=When You're Good, You're Good
EXTD=
EXTT0=
EXTT1=
EXTT2=
EXTT3=
EXTT4=
EXTT5=
EXTT6=
EXTT7=
EXTT8=
EXTT9=
EXTT10=
PLAYORDER=
